#N canvas 4 53 1259 689 10;
#X obj 281 235 gemhead;
#N canvas 88 183 247 179 Gem.init 0;
#X obj 118 46 loadbang;
#X msg 118 81 reset;
#X obj 118 113 outlet;
#X connect 0 0 1 0;
#X connect 1 0 2 0;
#X restore 90 153 pd Gem.init;
#N canvas 341 136 682 322 gemwin 0;
#X obj 102 122 tgl 15 0 \$0-gemstart \$0-gemstart empty 17 7 0 10 -262144
-1 -1 0 1;
#X obj 102 161 r \$0-gemstart;
#X obj 102 182 select 1 0;
#X msg 102 214 create \, 1;
#X msg 177 215 destroy;
#X obj 102 239 t a;
#X obj 318 54 inlet;
#X obj 318 255 gemwin;
#X obj 318 100 t a a;
#X obj 318 287 outlet;
#X obj 350 128 route create destroy;
#X obj 350 150 t b;
#X msg 350 172 1;
#X obj 390 150 t b;
#X msg 390 172 0;
#X obj 350 195 t f;
#X msg 350 219 set \$1;
#X text 118 122 rendering;
#X connect 1 0 2 0;
#X connect 2 0 3 0;
#X connect 2 1 4 0;
#X connect 3 0 5 0;
#X connect 4 0 5 0;
#X connect 5 0 8 0;
#X connect 6 0 8 0;
#X connect 7 0 9 0;
#X connect 8 0 7 0;
#X connect 8 1 10 0;
#X connect 10 0 11 0;
#X connect 10 1 13 0;
#X connect 11 0 12 0;
#X connect 12 0 15 0;
#X connect 13 0 14 0;
#X connect 14 0 15 0;
#X connect 15 0 16 0;
#X connect 16 0 0 0;
#X coords 0 -1 1 1 85 40 1 100 100;
#X restore 60 170 pd gemwin;
#X obj 407 42 tgl 15 0 empty empty empty 17 7 0 10 -262144 -1 -1 0
0.553543;
#X floatatom 284 342 5 0 0 0 - - -;
#X floatatom 240 341 5 0 0 0 - - -;
#X floatatom 389 343 5 0 0 0 - - -;
#X floatatom 345 342 5 0 0 0 - - -;
#X floatatom 494 345 5 0 0 0 - - -;
#X floatatom 450 344 5 0 0 0 - - -;
#N canvas 5 169 450 476 roda1 0;
#X obj 130 182 pix_texture;
#X obj 144 391 circle;
#X obj 159 255 rotate 45 0 0 1;
#X msg 259 232 1 0 0;
#X msg 274 256 0 1 1;
#X msg 218 334 1 1 1;
#X obj 147 335 scale 0.5;
#X obj 246 201 inlet;
#X obj 130 111 inlet;
#X obj 344 203 inlet;
#X obj 127 141 pix_image roda1.png;
#X msg 53 306 draw fill;
#X msg 285 293 0 0 1;
#X obj 126 212 color 0.8 0.5 0.2;
#X connect 0 0 13 0;
#X connect 2 0 6 0;
#X connect 3 0 2 2;
#X connect 4 0 2 2;
#X connect 5 0 6 2;
#X connect 6 0 1 0;
#X connect 7 0 2 1;
#X connect 8 0 10 0;
#X connect 9 0 6 1;
#X connect 10 0 0 0;
#X connect 11 0 1 0;
#X connect 12 0 2 2;
#X connect 13 0 2 0;
#X restore 212 373 pd roda1;
#N canvas 154 175 450 476 roda2 0;
#X obj 125 201 pix_texture;
#X obj 139 369 circle;
#X obj 159 255 rotate 45 0 0 1;
#X msg 259 232 1 0 0;
#X msg 274 256 0 1 1;
#X msg 218 334 1 1 1;
#X obj 147 335 scale 0.5;
#X obj 246 201 inlet;
#X obj 130 111 inlet;
#X obj 344 203 inlet;
#X obj 129 139 pix_image roda2.png;
#X obj 131 170 color 0.3 0.7 0.2;
#X connect 0 0 2 0;
#X connect 2 0 6 0;
#X connect 3 0 2 2;
#X connect 4 0 2 2;
#X connect 5 0 6 2;
#X connect 6 0 1 0;
#X connect 7 0 2 1;
#X connect 8 0 10 0;
#X connect 9 0 6 1;
#X connect 10 0 11 0;
#X connect 11 0 0 0;
#X restore 319 374 pd roda2;
#N canvas 199 177 450 476 roda3 0;
#X obj 130 182 pix_texture;
#X obj 139 369 circle;
#X obj 159 255 rotate 45 0 0 1;
#X msg 259 232 1 0 0;
#X msg 274 256 0 1 1;
#X msg 218 334 1 1 1;
#X obj 147 335 scale 0.5;
#X obj 246 201 inlet;
#X obj 130 111 inlet;
#X obj 344 203 inlet;
#X obj 129 139 pix_image roda3.png;
#X obj 64 219 color 0.3 0.6 0.6;
#X connect 0 0 11 0;
#X connect 2 0 6 0;
#X connect 3 0 2 2;
#X connect 4 0 2 2;
#X connect 5 0 6 2;
#X connect 6 0 1 0;
#X connect 7 0 2 1;
#X connect 8 0 10 0;
#X connect 9 0 6 1;
#X connect 10 0 0 0;
#X connect 11 0 2 0;
#X restore 425 377 pd roda3;
#X obj 222 36 tgl 15 0 empty empty empty 17 7 0 10 -262144 -1 -1 0
0.553543;
#X msg 284 316 4;
#X msg 391 318 0.8;
#X obj 306 133 tgl 15 0 empty empty empty 17 7 0 10 -262144 -1 -1 0
0.553543;
#X obj 223 65 metro 50;
#X obj 408 71 metro 15;
#X obj 306 162 metro 30;
#X obj 319 31 tgl 15 1 empty empty empty 17 7 0 10 -262144 -1 -1 0
0.553543;
#X obj 220 100 counter 2 0 360;
#X obj 405 106 counter 2 0 360;
#X obj 304 197 counter 2 0 360;
#X obj 395 282 loadbang;
#X msg 492 322 0.8;
#X obj 324 -25 loadbang;
#X msg 261 196 1;
#X obj 302 553 send graus;
#X obj 315 448 +;
#X obj 318 481 +;
#X obj 317 517 autoscale 0 1;
#X msg 315 0 1;
#X connect 0 0 10 0;
#X connect 0 0 11 0;
#X connect 0 0 12 0;
#X connect 1 0 2 0;
#X connect 3 0 18 0;
#X connect 4 0 10 2;
#X connect 5 0 10 1;
#X connect 5 0 29 0;
#X connect 6 0 11 2;
#X connect 7 0 11 1;
#X connect 7 0 29 1;
#X connect 8 0 12 2;
#X connect 9 0 12 1;
#X connect 9 0 30 1;
#X connect 13 0 17 0;
#X connect 14 0 4 0;
#X connect 15 0 6 0;
#X connect 16 0 19 0;
#X connect 17 0 21 0;
#X connect 18 0 22 0;
#X connect 19 0 23 0;
#X connect 20 0 13 0;
#X connect 20 0 16 0;
#X connect 20 0 3 0;
#X connect 21 0 5 0;
#X connect 22 0 9 0;
#X connect 23 0 7 0;
#X connect 24 0 14 0;
#X connect 24 0 15 0;
#X connect 24 0 25 0;
#X connect 25 0 8 0;
#X connect 26 0 32 0;
#X connect 27 0 0 0;
#X connect 29 0 30 0;
#X connect 30 0 31 0;
#X connect 31 0 28 0;
#X connect 32 0 20 0;
